<svg width="830" height="530" viewBox="0 0 830 530" xmlns="http://www.w3.org/2000/svg">
  <defs>
    <linearGradient id="hg" x1="0" y1="0" x2="1" y2="1">
      <stop offset="0%" stop-color="#1a1a2e"/>
      <stop offset="45%" stop-color="#0f3460"/>
      <stop offset="100%" stop-color="#533483"/>
    </linearGradient>
    <linearGradient id="fg" x1="0" y1="0" x2="1" y2="0">
      <stop offset="0%" stop-color="#533483" stop-opacity="0.45"/>
      <stop offset="100%" stop-color="#1a1a2e" stop-opacity="0.45"/>
    </linearGradient>
  </defs>

  <!-- Page background -->
  <rect width="830" height="530" fill="#0d1117"/>

  <!-- Header gradient block -->
  <rect width="830" height="178" fill="url(#hg)"/>

  <!-- Wave cutout -->
  <path d="M0,146 C138,178 277,118 415,146 C553,174 692,118 830,146 L830,178 L0,178 Z" fill="#0d1117"/>

  <!-- Name -->
  <text x="415" y="84" font-family="'Segoe UI',Arial,Helvetica,sans-serif" font-size="28" font-weight="bold" fill="#ffffff" text-anchor="middle">Hi, I'm Chador Wangchuk</text>

  <!-- Subtitle -->
  <text x="415" y="120" font-family="'Segoe UI',Arial,Helvetica,sans-serif" font-size="14" fill="#a0b4d0" text-anchor="middle">Full-Stack Developer  ·  Ruby on Rails  ·  Angular  ·  Bhutan</text>

  <!-- ABOUT ME label -->
  <text x="28" y="206" font-family="'Segoe UI',Arial,Helvetica,sans-serif" font-size="10" font-weight="bold" fill="#e85d04" letter-spacing="2">ABOUT ME</text>

  <!-- About card -->
  <rect x="18" y="214" width="794" height="175" rx="10" fill="#161b22" stroke="#30363d" stroke-width="0.5"/>

  <!-- Bullet markers -->
  <rect x="38" y="240" width="4" height="4" rx="2" fill="#e85d04"/>
  <rect x="38" y="270" width="4" height="4" rx="2" fill="#e85d04"/>
  <rect x="38" y="300" width="4" height="4" rx="2" fill="#e85d04"/>
  <rect x="38" y="330" width="4" height="4" rx="2" fill="#e85d04"/>
  <rect x="38" y="360" width="4" height="4" rx="2" fill="#30363d"/>

  <!-- About row 1 -->
  <text x="52" y="246" font-family="'Segoe UI',Arial,Helvetica,sans-serif" font-size="13" fill="#e6edf3">Building full-stack apps with <tspan font-weight="bold" fill="#ff8060">Ruby on Rails</tspan> backend and <tspan font-weight="bold" fill="#ff7090">Angular</tspan> frontend</text>

  <!-- About row 2 -->
  <text x="52" y="276" font-family="'Segoe UI',Arial,Helvetica,sans-serif" font-size="13" fill="#e6edf3">Working in an organisation on production-grade, private projects</text>

  <!-- About row 3 -->
  <text x="52" y="306" font-family="'Segoe UI',Arial,Helvetica,sans-serif" font-size="13" fill="#e6edf3">REST APIs  ·  ActiveRecord  ·  Background jobs  ·  Service objects</text>

  <!-- About row 4 -->
  <text x="52" y="336" font-family="'Segoe UI',Arial,Helvetica,sans-serif" font-size="13" fill="#e6edf3">Based in <tspan font-weight="bold">Thimphu, Bhutan</tspan></text>

  <!-- About row 5 (email) -->
  <text x="52" y="366" font-family="'Segoe UI',Arial,Helvetica,sans-serif" font-size="13" fill="#8b949e">chachuk1999@gmail.com</text>

  <!-- TECH STACK label -->
  <text x="28" y="410" font-family="'Segoe UI',Arial,Helvetica,sans-serif" font-size="10" font-weight="bold" fill="#e85d04" letter-spacing="2">TECH STACK</text>

  <!-- ── Badge row 1: Backend + Frontend ── -->

  <!-- Ruby -->
  <rect x="18" y="418" width="68" height="26" rx="13" fill="#3a0000" stroke="#e24b4a" stroke-width="0.5"/>
  <text x="52" y="435" font-family="'Segoe UI',Arial,Helvetica,sans-serif" font-size="11" fill="#ff8080" text-anchor="middle" font-weight="bold">Ruby</text>

  <!-- Ruby on Rails -->
  <rect x="94" y="418" width="114" height="26" rx="13" fill="#2a0000" stroke="#cc0000" stroke-width="0.5"/>
  <text x="151" y="435" font-family="'Segoe UI',Arial,Helvetica,sans-serif" font-size="11" fill="#ff6060" text-anchor="middle" font-weight="bold">Ruby on Rails</text>

  <!-- Angular -->
  <rect x="216" y="418" width="78" height="26" rx="13" fill="#2a0010" stroke="#dd0031" stroke-width="0.5"/>
  <text x="255" y="435" font-family="'Segoe UI',Arial,Helvetica,sans-serif" font-size="11" fill="#ff8090" text-anchor="middle" font-weight="bold">Angular</text>

  <!-- TypeScript -->
  <rect x="302" y="418" width="94" height="26" rx="13" fill="#001030" stroke="#007acc" stroke-width="0.5"/>
  <text x="349" y="435" font-family="'Segoe UI',Arial,Helvetica,sans-serif" font-size="11" fill="#60b4ff" text-anchor="middle" font-weight="bold">TypeScript</text>

  <!-- JavaScript -->
  <rect x="404" y="418" width="94" height="26" rx="13" fill="#2a1f00" stroke="#f7df1e" stroke-width="0.5"/>
  <text x="451" y="435" font-family="'Segoe UI',Arial,Helvetica,sans-serif" font-size="11" fill="#ffd700" text-anchor="middle" font-weight="bold">JavaScript</text>

  <!-- Python -->
  <rect x="506" y="418" width="72" height="26" rx="13" fill="#001428" stroke="#3776ab" stroke-width="0.5"/>
  <text x="542" y="435" font-family="'Segoe UI',Arial,Helvetica,sans-serif" font-size="11" fill="#60a0e0" text-anchor="middle" font-weight="bold">Python</text>

  <!-- Java -->
  <rect x="586" y="418" width="56" height="26" rx="13" fill="#1c0c00" stroke="#ed8b00" stroke-width="0.5"/>
  <text x="614" y="435" font-family="'Segoe UI',Arial,Helvetica,sans-serif" font-size="11" fill="#ffaa40" text-anchor="middle" font-weight="bold">Java</text>

  <!-- Spring Boot -->
  <rect x="650" y="418" width="98" height="26" rx="13" fill="#001400" stroke="#6db33f" stroke-width="0.5"/>
  <text x="699" y="435" font-family="'Segoe UI',Arial,Helvetica,sans-serif" font-size="11" fill="#80e040" text-anchor="middle" font-weight="bold">Spring Boot</text>

  <!-- ── Badge row 2: Databases + Tools ── -->

  <!-- PostgreSQL -->
  <rect x="18" y="453" width="98" height="26" rx="13" fill="#001030" stroke="#316192" stroke-width="0.5"/>
  <text x="67" y="470" font-family="'Segoe UI',Arial,Helvetica,sans-serif" font-size="11" fill="#7090ff" text-anchor="middle" font-weight="bold">PostgreSQL</text>

  <!-- MySQL -->
  <rect x="124" y="453" width="66" height="26" rx="13" fill="#001218" stroke="#00758f" stroke-width="0.5"/>
  <text x="157" y="470" font-family="'Segoe UI',Arial,Helvetica,sans-serif" font-size="11" fill="#40c0a0" text-anchor="middle" font-weight="bold">MySQL</text>

  <!-- Firebase -->
  <rect x="198" y="453" width="76" height="26" rx="13" fill="#181000" stroke="#ffca28" stroke-width="0.5"/>
  <text x="236" y="470" font-family="'Segoe UI',Arial,Helvetica,sans-serif" font-size="11" fill="#ffd060" text-anchor="middle" font-weight="bold">Firebase</text>

  <!-- Git -->
  <rect x="282" y="453" width="50" height="26" rx="13" fill="#280b00" stroke="#f05032" stroke-width="0.5"/>
  <text x="307" y="470" font-family="'Segoe UI',Arial,Helvetica,sans-serif" font-size="11" fill="#ff8060" text-anchor="middle" font-weight="bold">Git</text>

  <!-- Postman -->
  <rect x="340" y="453" width="78" height="26" rx="13" fill="#280e00" stroke="#ff6c37" stroke-width="0.5"/>
  <text x="379" y="470" font-family="'Segoe UI',Arial,Helvetica,sans-serif" font-size="11" fill="#ff9060" text-anchor="middle" font-weight="bold">Postman</text>

  <!-- HTML5 -->
  <rect x="426" y="453" width="62" height="26" rx="13" fill="#280600" stroke="#e34f26" stroke-width="0.5"/>
  <text x="457" y="470" font-family="'Segoe UI',Arial,Helvetica,sans-serif" font-size="11" fill="#ff8060" text-anchor="middle" font-weight="bold">HTML5</text>

  <!-- CSS3 -->
  <rect x="496" y="453" width="52" height="26" rx="13" fill="#00103a" stroke="#1572b6" stroke-width="0.5"/>
  <text x="522" y="470" font-family="'Segoe UI',Arial,Helvetica,sans-serif" font-size="11" fill="#60a0ff" text-anchor="middle" font-weight="bold">CSS3</text>

  <!-- Bootstrap -->
  <rect x="556" y="453" width="84" height="26" rx="13" fill="#0e001e" stroke="#7952b3" stroke-width="0.5"/>
  <text x="598" y="470" font-family="'Segoe UI',Arial,Helvetica,sans-serif" font-size="11" fill="#b080ff" text-anchor="middle" font-weight="bold">Bootstrap</text>

  <!-- Ionic -->
  <rect x="648" y="453" width="56" height="26" rx="13" fill="#00102a" stroke="#3880ff" stroke-width="0.5"/>
  <text x="676" y="470" font-family="'Segoe UI',Arial,Helvetica,sans-serif" font-size="11" fill="#60a0ff" text-anchor="middle" font-weight="bold">Ionic</text>

  <!-- Footer wave -->
  <path d="M0,500 C207,484 415,516 623,500 C726,492 778,502 830,496 L830,530 L0,530 Z" fill="url(#fg)"/>
</svg>
